<svg xmlns="http://www.w3.org/2000/svg" xmlns:xlink="http://www.w3.org/1999/xlink" width="1080" zoomAndPan="magnify" viewBox="0 0 810 809.999993" height="1080" preserveAspectRatio="xMidYMid meet" version="1.0"><rect x="-81" width="972" fill="#ffffff" y="-80.999999" height="971.999992" fill-opacity="1"/><rect x="-81" width="972" fill="#ffffff" y="-80.999999" height="971.999992" fill-opacity="1"/><path fill="#ec2836" d="M 314.152344 344.886719 C 313.914062 345.566406 313.71875 346.539062 313.71875 347.046875 C 313.71875 347.925781 313.84375 347.96875 316.46875 347.96875 C 317.980469 347.96875 319.21875 348.0625 319.21875 348.179688 C 319.21875 348.296875 318.308594 351.875 317.195312 356.128906 C 316.082031 360.386719 315.152344 364.3125 315.132812 364.855469 C 315.09375 365.832031 315.109375 365.835938 319.074219 365.945312 C 322.585938 366.046875 323.082031 365.976562 323.328125 365.359375 C 323.484375 364.972656 324.292969 362.007812 325.125 358.765625 C 325.960938 355.527344 326.757812 352.433594 326.898438 351.894531 C 327.109375 351.082031 327.3125 350.269531 327.515625 349.457031 L 327.878906 348 L 333.941406 347.773438 L 334.449219 346.226562 C 334.726562 345.375 334.863281 344.449219 334.753906 344.164062 C 334.597656 343.757812 332.453125 343.648438 324.570312 343.648438 L 314.582031 343.648438 Z M 488.136719 346.691406 C 487.945312 347.070312 487.667969 347.867188 487.527344 348.460938 C 487.226562 349.710938 488.125 349.621094 476.21875 349.566406 C 471.25 349.542969 468.398438 349.675781 468.234375 349.9375 C 468.097656 350.160156 467.460938 352.417969 466.824219 354.949219 C 466.1875 357.480469 465.308594 360.835938 464.871094 362.402344 C 464.429688 363.96875 464.179688 365.429688 464.3125 365.640625 C 464.679688 366.230469 471.789062 366.140625 472.261719 365.539062 C 472.472656 365.269531 473.140625 363.105469 473.738281 360.730469 C 475.171875 355.066406 475.554688 354.644531 479.300781 354.644531 C 481.746094 354.644531 482.246094 354.527344 482.664062 353.859375 C 483.230469 352.953125 486.105469 352.707031 486.105469 353.566406 C 486.105469 353.835938 485.664062 355.824219 485.128906 357.984375 C 483.855469 363.101562 483.863281 364.183594 485.175781 365.21875 C 486.113281 365.953125 486.738281 366.03125 491.753906 366.027344 C 494.804688 366.023438 497.511719 365.882812 497.773438 365.714844 C 498.039062 365.550781 498.304688 364.800781 498.363281 364.054688 L 498.476562 362.695312 L 495.628906 362.578125 C 492.28125 362.441406 492.308594 362.507812 493.546875 357.660156 C 494.726562 353.054688 494.710938 353.074219 497.851562 353.074219 C 500.789062 353.074219 501.261719 352.789062 501.480469 350.914062 L 501.617188 349.734375 L 498.746094 349.621094 L 495.878906 349.503906 L 496.140625 347.753906 L 496.40625 346.003906 L 492.445312 346.003906 C 489.074219 346.003906 488.4375 346.105469 488.136719 346.691406 M 361.070312 349.539062 L 354.035156 349.734375 L 353.671875 350.828125 C 352.960938 352.953125 353.25 353.074219 359.089844 353.074219 C 363.96875 353.074219 364.421875 353.132812 364.300781 353.761719 C 364.1875 354.363281 363.515625 354.472656 358.875 354.644531 C 354.652344 354.800781 353.367188 354.984375 352.539062 355.546875 C 351.277344 356.402344 349.992188 359.253906 349.628906 361.992188 C 349.382812 363.828125 349.453125 364.101562 350.394531 365.042969 C 351.421875 366.074219 351.445312 366.074219 356.429688 365.898438 C 359.179688 365.800781 361.609375 365.714844 361.824219 365.710938 C 362.039062 365.707031 363.851562 365.789062 365.847656 365.894531 L 369.480469 366.085938 L 369.898438 364.980469 C 370.351562 363.792969 371.230469 360.433594 372.894531 353.5625 C 373.183594 352.359375 372.367188 350.519531 371.320312 350.015625 C 370.015625 349.386719 368.699219 349.328125 361.070312 349.539062 M 507.21875 349.554688 C 505.007812 349.8125 503.199219 351.324219 502.574219 353.445312 C 501.507812 357.058594 500.25 362.40625 500.246094 363.351562 C 500.242188 364.546875 501.070312 365.539062 502.332031 365.847656 C 502.800781 365.964844 506.980469 366.007812 511.613281 365.945312 L 520.042969 365.835938 L 520.394531 364.339844 C 520.589844 363.519531 520.640625 362.738281 520.507812 362.609375 C 520.378906 362.476562 518.722656 362.390625 516.832031 362.421875 C 514.941406 362.453125 512.425781 362.351562 511.238281 362.195312 C 509.269531 361.933594 509.078125 361.820312 509.078125 360.925781 L 509.078125 359.945312 L 515.75 359.75 C 522.03125 359.5625 522.425781 359.507812 522.554688 358.765625 C 522.628906 358.335938 522.941406 357.226562 523.246094 356.300781 C 523.550781 355.375 523.804688 353.765625 523.804688 352.726562 C 523.804688 349.707031 523.53125 349.597656 515.742188 349.460938 C 512.078125 349.394531 508.242188 349.4375 507.21875 349.554688 M 335.816406 350.03125 C 335.222656 350.789062 331.675781 365.148438 331.964844 365.617188 C 332.117188 365.859375 333.753906 366.03125 335.941406 366.03125 C 340.371094 366.03125 339.855469 366.75 342.054688 357.492188 C 342.597656 355.195312 343.539062 354.644531 346.921875 354.644531 C 350.097656 354.644531 350.566406 354.234375 350.738281 351.304688 L 350.828125 349.734375 L 348.144531 349.617188 C 346.664062 349.554688 345.246094 349.675781 344.988281 349.890625 C 344.695312 350.132812 344.304688 350.144531 343.941406 349.914062 C 343.046875 349.351562 336.273438 349.445312 335.816406 350.03125 M 376.035156 349.832031 C 375.785156 350.273438 374.683594 353.914062 374.457031 355.035156 C 374.347656 355.578125 373.710938 358.105469 373.039062 360.65625 C 372.371094 363.207031 371.921875 365.460938 372.046875 365.664062 C 372.402344 366.238281 379.523438 366.128906 379.953125 365.539062 C 380.152344 365.269531 380.90625 362.664062 381.632812 359.75 C 382.359375 356.832031 383.21875 354.140625 383.542969 353.761719 C 384.253906 352.929688 387.460938 352.792969 387.761719 353.578125 C 387.871094 353.855469 387.328125 356.539062 386.558594 359.542969 C 385.789062 362.542969 385.25 365.238281 385.363281 365.53125 C 385.519531 365.9375 386.457031 366.035156 389.375 365.949219 L 393.183594 365.835938 L 393.535156 364.65625 C 393.726562 364.007812 394.46875 361.1875 395.179688 358.386719 C 396.582031 352.867188 396.53125 351.605469 394.855469 350.234375 C 394.121094 349.636719 392.964844 349.554688 385.113281 349.546875 C 380.210938 349.542969 376.128906 349.671875 376.035156 349.832031 M 401.175781 350.355469 C 399.574219 351.203125 398.582031 352.957031 397.796875 356.320312 C 396.8125 360.550781 397.269531 360.925781 403.378906 360.925781 C 407.699219 360.925781 407.964844 360.972656 407.964844 361.710938 C 407.964844 362.460938 407.699219 362.496094 402.28125 362.496094 C 397.070312 362.496094 396.570312 362.558594 396.195312 363.257812 C 395.972656 363.675781 395.789062 364.46875 395.789062 365.023438 L 395.789062 366.03125 L 403.882812 366.03125 C 411.457031 366.03125 412.078125 365.976562 413.492188 365.179688 C 415.613281 363.992188 416.71875 361.554688 416.765625 358 C 416.796875 355.464844 416.726562 355.230469 415.816406 354.765625 C 415.199219 354.449219 413.261719 354.261719 410.613281 354.257812 C 407.125 354.253906 406.390625 354.148438 406.390625 353.664062 C 406.390625 353.167969 407.234375 353.074219 411.59375 353.066406 C 414.457031 353.0625 417.035156 352.910156 417.324219 352.726562 C 417.613281 352.542969 417.878906 351.796875 417.914062 351.066406 L 417.976562 349.734375 L 410.320312 349.652344 C 403.3125 349.574219 402.535156 349.632812 401.175781 350.355469 M 421.117188 350.226562 C 420.964844 350.605469 420.425781 352.503906 419.929688 354.449219 C 419.429688 356.390625 418.300781 360.785156 417.417969 364.210938 C 416.539062 367.636719 415.816406 370.777344 415.816406 371.195312 C 415.816406 371.898438 416.09375 371.941406 419.816406 371.835938 L 423.816406 371.726562 L 424.140625 370.351562 C 424.367188 369.398438 424.609375 368.449219 424.867188 367.503906 L 425.273438 366.03125 L 430.261719 366.03125 C 434.65625 366.027344 435.417969 365.929688 436.621094 365.195312 C 438.816406 363.855469 439.003906 363.496094 440.582031 357.441406 C 441.625 353.457031 441.582031 351.472656 440.433594 350.394531 C 439.550781 349.566406 439.226562 349.539062 430.460938 349.539062 C 422.199219 349.539062 421.375 349.601562 421.117188 350.226562 M 445.425781 350.332031 C 443.949219 351.277344 443.21875 352.863281 441.929688 357.890625 C 440.644531 362.902344 440.652344 364.171875 441.984375 365.21875 C 442.953125 365.980469 443.519531 366.03125 451.035156 366.03125 C 457.429688 366.03125 459.28125 365.910156 460.203125 365.4375 C 461.46875 364.78125 462.328125 363.382812 462.890625 361.066406 C 463.09375 360.234375 463.625 358.15625 464.078125 356.445312 C 465.105469 352.570312 465.113281 351.320312 464.117188 350.324219 C 463.378906 349.589844 462.8125 349.539062 454.984375 349.546875 C 447.339844 349.550781 446.539062 349.617188 445.425781 350.332031 M 528.914062 350.265625 C 528.167969 350.667969 527.25 351.417969 526.871094 351.933594 C 526.089844 353.003906 524.980469 356.976562 524.980469 358.707031 C 524.980469 360.585938 525.832031 360.902344 530.96875 360.914062 C 535.316406 360.925781 535.582031 360.972656 535.582031 361.710938 C 535.582031 362.460938 535.320312 362.496094 529.9375 362.496094 C 523.824219 362.496094 523.566406 362.582031 523.339844 364.664062 L 523.214844 365.835938 L 531.460938 365.9375 C 539.0625 366.03125 539.804688 365.976562 540.960938 365.269531 C 542.664062 364.222656 543.394531 362.996094 544.25 359.734375 C 545.472656 355.089844 544.496094 354.25 537.878906 354.25 C 534.738281 354.25 534.011719 354.144531 534.011719 353.671875 C 534.011719 353.199219 534.96875 353.078125 539.40625 352.984375 L 544.800781 352.878906 L 545.328125 351.773438 C 546.367188 349.605469 546.144531 349.539062 537.847656 349.539062 C 531.222656 349.539062 530.097656 349.628906 528.914062 350.265625 M 428.890625 353.386719 C 428.324219 353.746094 426.199219 361.621094 426.570312 361.992188 C 426.835938 362.261719 430.664062 362.3125 430.917969 362.050781 C 431.292969 361.671875 433.101562 354.054688 432.929688 353.597656 C 432.707031 353.027344 429.703125 352.867188 428.890625 353.386719 M 511.078125 353.925781 C 509.917969 355.582031 510.453125 356.214844 513.007812 356.214844 C 514.554688 356.214844 515.648438 355.28125 515.480469 354.105469 C 515.378906 353.410156 515.050781 353.25 513.53125 353.152344 C 512 353.050781 511.601562 353.179688 511.078125 353.925781 M 451.445312 353.761719 C 451.359375 353.921875 450.867188 355.785156 450.347656 357.902344 C 449.527344 361.253906 449.480469 361.800781 449.988281 362.136719 C 450.699219 362.613281 453.546875 362.242188 454.152344 361.597656 C 454.613281 361.101562 456.261719 355.265625 456.261719 354.125 C 456.261719 353.582031 455.851562 353.464844 453.929688 353.464844 C 452.644531 353.464844 451.527344 353.597656 451.445312 353.761719 M 358.703125 359.445312 C 357.335938 361.394531 358.289062 362.691406 360.769531 362.25 C 362.125 362.007812 362.664062 361.429688 362.992188 359.847656 L 363.261719 358.570312 L 361.289062 358.570312 C 359.695312 358.570312 359.199219 358.738281 358.703125 359.445312 M 357.558594 373.136719 C 356.078125 373.53125 352.632812 374.226562 349.902344 374.679688 C 334.667969 377.199219 328.210938 379.730469 324.929688 384.460938 C 323.4375 386.617188 323.71875 387.035156 325.683594 385.585938 C 326.628906 384.886719 327.578125 384.195312 328.53125 383.511719 C 331.3125 381.523438 338.523438 378.792969 343.957031 377.667969 C 347.265625 376.980469 354.90625 376.0625 355.164062 376.320312 C 355.253906 376.414062 354.722656 377.632812 353.980469 379.03125 C 351.746094 383.242188 350.457031 389.761719 349.835938 400 C 349.140625 411.507812 348.675781 416.417969 348.078125 418.652344 C 347.347656 421.371094 347.351562 421.59375 348.097656 420.847656 C 349.898438 419.046875 351.269531 413.714844 353 401.765625 C 355.277344 386.03125 357.136719 379.445312 360.8125 374.082031 C 362.210938 372.042969 361.953125 371.96875 357.558594 373.136719 M 429.617188 380.660156 C 429.402344 381.359375 428.871094 383.347656 428.4375 385.078125 C 428.007812 386.804688 426.933594 391 426.054688 394.394531 C 425.175781 397.792969 424.457031 400.84375 424.457031 401.167969 C 424.457031 401.683594 425.652344 401.765625 433.300781 401.765625 L 442.144531 401.765625 L 442.527344 400.757812 C 442.738281 400.203125 442.910156 399.320312 442.910156 398.792969 C 442.910156 397.839844 442.902344 397.839844 438.65625 397.839844 C 436.316406 397.839844 434.304688 397.742188 434.1875 397.621094 C 433.945312 397.382812 434.105469 396.648438 435.628906 390.964844 C 437.75 383.0625 438.199219 381.203125 438.199219 380.300781 C 438.199219 379.398438 438.136719 379.382812 434.105469 379.382812 L 430.015625 379.382812 Z M 474.390625 380.070312 C 473.804688 381.210938 473.488281 383.625 473.894531 383.875 C 474.273438 384.109375 477.15625 384.238281 479.859375 384.144531 C 481.472656 384.085938 482.179688 383.050781 482.179688 380.738281 L 482.179688 379.382812 L 478.460938 379.382812 C 475.320312 379.382812 474.691406 379.488281 474.390625 380.070312 M 366.820312 381.859375 C 365.15625 384.609375 362.792969 389.765625 361.089844 394.355469 C 358.351562 401.726562 353.785156 420.230469 354.339844 421.683594 C 354.554688 422.242188 355.609375 422.28125 364.289062 422.046875 C 375.925781 421.730469 382.53125 421.492188 394.023438 420.972656 C 398.773438 420.757812 406.285156 420.417969 410.710938 420.21875 C 415.140625 420.023438 421.941406 419.675781 425.828125 419.453125 C 443.441406 418.441406 447.652344 418.226562 457.046875 417.859375 C 462.554688 417.644531 467.621094 417.375 468.304688 417.261719 C 470.683594 416.867188 510.523438 417.03125 515.109375 417.453125 C 522.546875 418.140625 530.097656 419.078125 532.910156 419.667969 C 534.359375 419.972656 536.015625 420.222656 536.59375 420.222656 C 537.570312 420.222656 537.625 420.128906 537.394531 418.945312 C 536.980469 416.839844 535.273438 416.128906 533.046875 417.144531 C 532.269531 417.5 530.847656 417.457031 526.648438 416.960938 C 505.851562 414.496094 470.421875 414.765625 406.980469 417.871094 C 384.375 418.976562 358.847656 419.53125 358.242188 418.925781 C 357.4375 418.128906 363.75 396.683594 366.953125 389.320312 C 368.425781 385.9375 368.695312 384.921875 368.695312 382.765625 C 368.695312 381.363281 368.550781 380.125 368.375 380.015625 C 368.195312 379.90625 367.496094 380.734375 366.820312 381.859375 M 448.476562 385.960938 C 448.28125 386.339844 447.46875 389.183594 446.671875 392.28125 C 445.082031 398.460938 445.089844 399.691406 446.734375 400.980469 C 447.695312 401.738281 448.210938 401.773438 456.804688 401.675781 L 465.859375 401.570312 L 466.78125 398.035156 C 469.785156 386.488281 469.921875 385.859375 469.472656 385.574219 C 469.226562 385.414062 467.523438 385.285156 465.6875 385.285156 C 463.851562 385.285156 462.15625 385.414062 461.921875 385.574219 C 461.6875 385.730469 461.105469 387.363281 460.628906 389.199219 C 460.152344 391.035156 459.484375 393.597656 459.148438 394.894531 C 458.808594 396.1875 458.355469 397.46875 458.136719 397.742188 C 457.914062 398.011719 456.878906 398.230469 455.820312 398.230469 C 454.042969 398.230469 453.90625 398.160156 453.90625 397.253906 C 453.90625 396.71875 454.367188 394.550781 454.925781 392.445312 C 456.464844 386.675781 456.625 385.933594 456.410156 385.589844 C 456.304688 385.414062 454.554688 385.273438 452.523438 385.273438 C 449.402344 385.273438 448.773438 385.378906 448.476562 385.960938 M 472.824219 385.945312 C 472.621094 386.332031 471.539062 390.265625 470.414062 394.683594 C 469.289062 399.105469 468.203125 403.035156 467.996094 403.421875 C 467.6875 404 467.097656 404.121094 464.570312 404.121094 C 461.132812 404.121094 460.390625 404.488281 460 406.363281 C 459.769531 407.476562 459.855469 407.65625 460.703125 407.867188 C 462.601562 408.34375 472.492188 407.886719 473.738281 407.261719 C 475.109375 406.574219 476.320312 404.304688 477.300781 400.585938 C 477.671875 399.183594 478.195312 397.238281 478.460938 396.269531 C 479.730469 391.628906 480.738281 387.339844 480.769531 386.449219 C 480.804688 385.476562 480.777344 385.46875 476.996094 385.355469 C 473.671875 385.257812 473.144531 385.332031 472.824219 385.945312 M 483.375 386.203125 C 482.429688 388.6875 482.25 388.59375 488.265625 388.808594 C 492.804688 388.96875 493.761719 389.105469 493.761719 389.59375 C 493.761719 390.078125 492.824219 390.214844 488.460938 390.378906 C 484.699219 390.515625 482.894531 390.746094 482.242188 391.164062 C 480.898438 392.027344 479.453125 395.148438 479.175781 397.785156 C 478.964844 399.804688 479.042969 400.199219 479.773438 400.929688 C 480.539062 401.695312 481.03125 401.765625 485.632812 401.765625 C 489.117188 401.765625 490.820312 401.613281 491.179688 401.273438 C 491.597656 400.882812 491.738281 400.882812 491.882812 401.273438 C 492.089844 401.847656 498.882812 401.984375 499.230469 401.421875 C 499.457031 401.050781 500.378906 397.839844 501.324219 394.109375 C 501.652344 392.8125 502 390.671875 502.09375 389.351562 C 502.257812 387.109375 502.195312 386.894531 501.203125 386.109375 C 500.191406 385.316406 499.714844 385.273438 491.933594 385.273438 L 483.730469 385.273438 Z M 503.957031 385.6875 C 503.71875 386.074219 504.097656 388.714844 505.691406 397.839844 L 506.347656 401.570312 L 510.734375 401.679688 L 515.125 401.789062 L 518.929688 395.984375 C 521.023438 392.792969 523.332031 389.28125 524.054688 388.175781 C 525.820312 385.492188 525.769531 385.203125 523.550781 385.347656 L 521.730469 385.46875 L 518.824219 389.984375 C 517.222656 392.46875 515.789062 394.707031 515.636719 394.960938 C 515.484375 395.210938 515.113281 395.476562 514.8125 395.550781 C 514.394531 395.648438 514.097656 394.582031 513.574219 391.058594 C 513.195312 388.515625 512.785156 386.171875 512.664062 385.855469 C 512.484375 385.390625 511.59375 385.273438 508.328125 385.273438 C 505.863281 385.273438 504.113281 385.4375 503.957031 385.6875 M 323.144531 388.023438 C 318.480469 388.757812 317.378906 389.042969 314.703125 390.183594 C 309.488281 392.414062 305.535156 397.625 302.050781 406.867188 C 300.988281 409.6875 300.691406 409.996094 299.035156 410.003906 C 296.863281 410.015625 286.4375 412.226562 282.253906 413.5625 C 277.480469 415.085938 274.34375 417.398438 272.84375 420.496094 C 271.789062 422.675781 271.726562 426.703125 272.679688 431.210938 C 273.578125 435.453125 274.058594 435.558594 274.058594 431.507812 C 274.058594 420.472656 276.519531 417.296875 286.9375 414.878906 C 292.734375 413.53125 299.644531 412.296875 299.90625 412.558594 C 300 412.65625 299.808594 413.84375 299.476562 415.199219 C 299.144531 416.558594 298.761719 418.464844 298.625 419.4375 L 298.378906 421.203125 L 299.3125 419.238281 C 299.824219 418.160156 300.5625 416.378906 300.949219 415.285156 C 302.257812 411.585938 301.644531 411.792969 315.292969 410.410156 C 322.21875 409.707031 324.722656 409.1875 327.132812 407.953125 C 330.871094 406.042969 334.339844 401.59375 336.113281 396.4375 C 337.425781 392.617188 336.902344 391.117188 335.511719 394.703125 C 332.722656 401.890625 326.285156 406.859375 318.234375 408.035156 C 314.808594 408.535156 304.210938 409.269531 303.964844 409.023438 C 303.65625 408.71875 306.183594 403.328125 308.285156 399.800781 C 311.621094 394.210938 315.640625 391.566406 323.453125 389.816406 C 327.921875 388.816406 333.414062 388.023438 335.851562 388.023438 C 336.734375 388.023438 337.230469 387.863281 337.085938 387.628906 C 336.695312 386.996094 328.09375 387.238281 323.144531 388.023438 M 488.132812 395.304688 C 487.167969 397.421875 487.691406 398.230469 490.035156 398.230469 C 491.179688 398.230469 492.382812 397.363281 492.394531 396.535156 C 492.398438 396.28125 492.507812 395.675781 492.636719 395.1875 C 492.859375 394.351562 492.761719 394.304688 490.730469 394.304688 C 488.816406 394.304688 488.539062 394.410156 488.132812 395.304688 M 476.289062 419.660156 C 461.535156 421.316406 454.960938 426.066406 453.710938 435.964844 L 453.484375 437.773438 L 448.296875 438.042969 C 445.441406 438.1875 437.71875 438.582031 431.132812 438.917969 C 424.542969 439.25 417.121094 439.648438 414.636719 439.804688 C 405.449219 440.375 413.449219 440.675781 434.863281 440.558594 L 456.066406 440.445312 L 456.359375 437.789062 C 457.175781 430.386719 462.105469 425.402344 470.792969 423.1875 C 475.0625 422.097656 483.667969 421.691406 492.445312 422.160156 C 501.953125 422.667969 508.386719 422.699219 507.878906 422.238281 C 507.53125 421.921875 502.03125 421.105469 494.351562 420.234375 C 490.621094 419.808594 478.414062 419.421875 476.289062 419.660156 M 309.523438 422.386719 C 307.105469 422.667969 304.457031 423.105469 303.632812 423.363281 C 297.625 425.257812 294.003906 428.519531 292.328125 433.542969 C 291.785156 435.179688 291.339844 437.070312 291.339844 437.742188 C 291.339844 438.851562 291.199219 438.988281 289.867188 439.210938 C 289.054688 439.347656 286.402344 439.574219 283.96875 439.714844 C 281.539062 439.859375 279.652344 440.082031 279.777344 440.210938 C 280.082031 440.519531 292.964844 441.738281 293.597656 441.515625 C 293.867188 441.417969 294.101562 441.050781 294.121094 440.695312 C 294.140625 440.335938 294.285156 440.484375 294.453125 441.03125 C 296.855469 448.898438 305.304688 452.691406 313.570312 449.617188 C 314.976562 449.09375 316.246094 448.171875 317.792969 446.550781 C 319.917969 444.320312 320.546875 443.402344 319.511719 444.035156 C 319.242188 444.203125 318.316406 444.8125 317.449219 445.390625 C 312.699219 448.574219 305.675781 448.496094 301.3125 445.210938 C 297.648438 442.453125 296.046875 438.40625 297.066406 434.484375 C 297.589844 432.480469 299.730469 428.859375 300.394531 428.859375 C 300.550781 428.859375 300.777344 428.605469 300.894531 428.292969 C 301.4375 426.882812 298 429.394531 296.148438 431.765625 C 295.660156 432.382812 295.265625 432.710938 295.265625 432.488281 C 295.265625 431.4375 299.039062 427.976562 301.382812 426.882812 C 303.550781 425.867188 304.570312 425.671875 309.480469 425.316406 C 315.179688 424.902344 327.4375 425.3125 334.335938 426.144531 C 336.0625 426.351562 342.425781 426.625 348.472656 426.75 C 357.660156 426.9375 359.824219 426.875 361.628906 426.371094 L 363.785156 425.769531 L 361.039062 425.730469 C 359.527344 425.707031 355.640625 425.433594 352.398438 425.121094 C 340.914062 424.019531 335.105469 423.410156 333.945312 423.1875 C 332.539062 422.917969 316.402344 421.773438 314.9375 421.835938 C 314.375 421.863281 311.941406 422.109375 309.523438 422.386719 M 375.175781 423.4375 C 369.464844 425.441406 365.488281 429.941406 364.261719 435.789062 C 363.925781 437.394531 363.617188 437.96875 363.015625 438.121094 C 362.574219 438.230469 353.859375 438.269531 343.644531 438.203125 C 323.058594 438.074219 324.589844 438.300781 324.097656 435.347656 C 323.753906 433.285156 322.324219 430.503906 320.921875 429.175781 C 319.648438 427.964844 317.308594 426.890625 315.992188 426.910156 C 315.109375 426.921875 315.105469 426.929688 315.878906 427.5 C 320.136719 430.640625 321.964844 434.234375 321.964844 439.441406 L 321.964844 441.824219 L 366.535156 441.621094 L 366.582031 438.589844 C 366.621094 436.121094 366.835938 435.132812 367.730469 433.304688 C 370.496094 427.648438 376.519531 424.574219 383.921875 425.039062 C 387.636719 425.269531 390.8125 426.570312 393.691406 429.03125 C 395.65625 430.710938 395.996094 430.78125 395.242188 429.351562 C 394.605469 428.136719 392.226562 425.8125 390.566406 424.785156 C 386.875 422.5 379.652344 421.867188 375.175781 423.4375 M 372.777344 428.792969 C 366.628906 433.253906 365.8125 440.535156 370.8125 446.375 C 374.335938 450.492188 381.585938 451.886719 387.179688 449.527344 C 388.90625 448.796875 392.480469 445.640625 392.75 444.605469 C 392.917969 443.976562 392.648438 444.0625 391.128906 445.132812 C 382.660156 451.121094 370.078125 446.089844 370.152344 436.75 C 370.167969 434.585938 371.171875 431.597656 372.28125 430.386719 C 375.097656 427.332031 375.1875 427.046875 372.777344 428.792969 M 492.449219 428.265625 C 490.949219 429.09375 488.457031 431.691406 487.550781 433.375 C 486.875 434.628906 486.703125 435.621094 486.699219 438.285156 C 486.695312 441.253906 486.824219 441.851562 487.859375 443.726562 C 490.304688 448.140625 494.726562 450.601562 500.214844 450.601562 C 504.476562 450.601562 506.90625 449.640625 509.804688 446.8125 C 511.082031 445.566406 512.023438 444.4375 511.894531 444.308594 C 511.765625 444.179688 510.804688 444.621094 509.761719 445.289062 C 507.03125 447.042969 504.835938 447.707031 501.777344 447.707031 C 490.839844 447.707031 485.253906 436.984375 492.195312 429.304688 C 493 428.410156 493.59375 427.699219 493.515625 427.71875 C 493.433594 427.742188 492.957031 427.988281 492.449219 428.265625 M 461.8125 430.332031 C 459.097656 433.066406 457.953125 436.109375 458.355469 439.519531 C 459.125 446.023438 464.574219 450.523438 471.773438 450.601562 C 476.15625 450.648438 478.578125 449.714844 481.566406 446.832031 C 484.191406 444.296875 484.265625 443.515625 481.714844 445.257812 C 478.96875 447.132812 476.292969 447.828125 472.609375 447.625 C 468.863281 447.417969 466.242188 446.28125 463.773438 443.785156 C 460.117188 440.09375 459.984375 433.847656 463.480469 429.839844 C 464.472656 428.707031 464.757812 428.074219 464.28125 428.074219 C 464.15625 428.074219 463.042969 429.089844 461.8125 430.332031 M 294.085938 435.535156 C 294.085938 436.183594 294.15625 436.714844 294.238281 436.714844 C 294.320312 436.714844 294.46875 436.183594 294.5625 435.535156 C 294.65625 434.886719 294.589844 434.359375 294.410156 434.359375 C 294.234375 434.359375 294.085938 434.886719 294.085938 435.535156 M 299.730469 478.402344 C 298.296875 478.78125 297.785156 479.3125 297.410156 480.8125 C 297.171875 481.753906 297.359375 482.113281 298.753906 483.398438 C 299.640625 484.21875 300.371094 485.101562 300.371094 485.359375 C 300.371094 486.054688 298.730469 486.53125 297.695312 486.140625 C 296.34375 485.632812 296.050781 485.714844 296.050781 486.59375 C 296.050781 488.339844 299.679688 488.546875 301.429688 486.902344 C 302.863281 485.558594 302.652344 483.773438 300.894531 482.363281 C 299.015625 480.859375 299.265625 479.785156 301.449219 479.976562 C 302.683594 480.082031 302.921875 479.980469 302.921875 479.347656 C 302.921875 478.402344 301.414062 477.957031 299.730469 478.402344 M 435.925781 478.359375 C 434.261719 478.714844 433.164062 479.710938 432.261719 481.675781 C 430.914062 484.609375 431.523438 487.050781 433.792969 487.796875 C 436.632812 488.734375 439.660156 486.765625 440.570312 483.390625 C 441.039062 481.636719 440.789062 479.804688 439.980469 479.132812 C 439.109375 478.410156 437.296875 478.066406 435.925781 478.359375 M 465.015625 478.410156 C 463.605469 478.785156 462.546875 480.039062 462.546875 481.335938 C 462.546875 481.867188 463.160156 482.710938 464.136719 483.519531 C 465.277344 484.46875 465.65625 485.03125 465.46875 485.515625 C 465.148438 486.347656 464.375 486.46875 462.441406 485.984375 C 461.53125 485.753906 461.367188 485.835938 461.367188 486.527344 C 461.367188 487.652344 462.71875 488.28125 464.453125 487.960938 C 467.699219 487.363281 468.800781 484.296875 466.375 482.605469 C 464.800781 481.507812 464.519531 481.117188 464.792969 480.40625 C 464.941406 480.019531 465.503906 479.890625 466.625 479.976562 C 468 480.085938 468.238281 479.992188 468.238281 479.347656 C 468.238281 478.394531 466.730469 477.957031 465.015625 478.410156 M 503.5 478.410156 C 502.089844 478.785156 501.027344 480.039062 501.027344 481.335938 C 501.027344 481.867188 501.644531 482.710938 502.617188 483.519531 C 503.761719 484.46875 504.136719 485.03125 503.949219 485.515625 C 503.632812 486.347656 502.855469 486.46875 500.921875 485.984375 C 500.011719 485.753906 499.847656 485.835938 499.847656 486.527344 C 499.847656 487.652344 501.199219 488.28125 502.933594 487.960938 C 506.183594 487.363281 507.28125 484.296875 504.855469 482.605469 C 503.285156 481.507812 503.003906 481.117188 503.277344 480.40625 C 503.425781 480.019531 503.984375 479.890625 505.105469 479.976562 C 506.484375 480.085938 506.722656 479.992188 506.722656 479.347656 C 506.722656 478.394531 505.214844 477.957031 503.5 478.410156 M 304.539062 481.96875 C 304.242188 483.523438 303.941406 485.074219 303.640625 486.625 C 303.425781 487.699219 304.160156 488.332031 305.011719 487.804688 C 305.4375 487.542969 307.046875 480.644531 307.046875 479.078125 C 307.046875 478.566406 306.765625 478.335938 306.140625 478.335938 C 305.308594 478.335938 305.175781 478.640625 304.539062 481.96875 M 309.214844 478.828125 C 309.0625 479.296875 307.4375 487.324219 307.4375 487.621094 C 307.4375 487.699219 308.761719 487.761719 310.382812 487.761719 C 313.066406 487.761719 313.328125 487.691406 313.328125 486.976562 C 313.328125 486.304688 313.066406 486.191406 311.515625 486.191406 C 309.828125 486.191406 309.71875 486.128906 309.9375 485.308594 C 310.070312 484.820312 310.179688 484.292969 310.179688 484.128906 C 310.183594 483.96875 310.875 483.835938 311.714844 483.835938 C 312.746094 483.835938 313.320312 483.632812 313.480469 483.214844 C 313.84375 482.269531 313.832031 482.265625 312.105469 482.265625 C 310.617188 482.265625 310.507812 482.191406 310.722656 481.378906 C 310.855469 480.894531 310.964844 480.375 310.964844 480.222656 C 310.96875 480.074219 311.808594 479.898438 312.832031 479.832031 C 314.234375 479.742188 314.726562 479.542969 314.824219 479.023438 C 314.941406 478.421875 314.609375 478.335938 312.167969 478.335938 C 310.28125 478.335938 309.324219 478.496094 309.214844 478.828125 M 316.695312 478.683594 C 316.179688 479.515625 314.875 487.503906 315.199219 487.828125 C 316.042969 488.667969 316.757812 487.640625 317.246094 484.894531 C 318.0625 480.316406 318.257812 480.226562 318.796875 484.183594 C 319.289062 487.769531 319.304688 487.804688 320.335938 487.6875 C 321.1875 487.585938 321.707031 486.976562 323.191406 484.3125 C 324.1875 482.523438 325.09375 480.96875 325.203125 480.859375 C 325.3125 480.75 325.085938 482.210938 324.699219 484.109375 C 323.988281 487.585938 324.125 488.355469 325.371094 487.878906 C 325.953125 487.65625 325.972656 487.59375 327.03125 482.332031 C 327.835938 478.332031 327.773438 478.160156 325.636719 478.40625 C 324.714844 478.511719 324.25 479.035156 322.808594 481.59375 C 321.859375 483.277344 321.015625 484.585938 320.933594 484.503906 C 320.851562 484.421875 320.601562 483.3125 320.371094 482.035156 C 319.71875 478.371094 319.703125 478.335938 318.234375 478.335938 C 317.503906 478.335938 316.8125 478.492188 316.695312 478.683594 M 329.628906 479.222656 C 328.480469 484.117188 327.96875 487.585938 328.359375 487.828125 C 329.125 488.304688 330.113281 487.433594 330.371094 486.054688 C 330.601562 484.835938 330.765625 484.703125 332.28125 484.5 C 334.351562 484.222656 335.710938 482.792969 335.710938 480.890625 C 335.710938 479.101562 334.570312 478.335938 331.898438 478.335938 C 330.082031 478.335938 329.808594 478.441406 329.628906 479.222656 M 337.9375 478.632812 C 337.839844 478.792969 337.355469 480.839844 336.859375 483.179688 C 336.121094 486.671875 336.054688 487.488281 336.488281 487.753906 C 337.394531 488.316406 338.023438 487.75 338.359375 486.058594 C 338.605469 484.804688 338.859375 484.425781 339.453125 484.425781 C 340.03125 484.425781 340.320312 484.820312 340.601562 485.996094 C 341.078125 487.996094 341.652344 488.484375 342.722656 487.804688 C 343.171875 487.519531 343.164062 487.144531 342.675781 485.476562 C 342.105469 483.53125 342.113281 483.464844 343.023438 482.609375 C 344.226562 481.480469 344.253906 479.765625 343.082031 478.949219 C 342.1875 478.320312 338.265625 478.078125 337.9375 478.632812 M 346.3125 478.492188 C 346.3125 478.574219 345.960938 480.359375 345.527344 482.460938 C 344.371094 488.078125 344.253906 487.761719 347.492188 487.761719 C 349.976562 487.761719 350.238281 487.6875 350.238281 486.976562 C 350.238281 486.3125 349.976562 486.191406 348.539062 486.191406 C 346.882812 486.191406 346.84375 486.164062 347.011719 485.035156 C 347.164062 483.992188 347.34375 483.863281 348.804688 483.757812 C 349.980469 483.671875 350.464844 483.449219 350.558594 482.953125 C 350.664062 482.390625 350.40625 482.265625 349.160156 482.265625 C 347.679688 482.265625 347.632812 482.222656 347.800781 481.085938 C 347.964844 479.960938 348.058594 479.90625 349.890625 479.90625 C 351.546875 479.90625 351.808594 479.800781 351.808594 479.121094 C 351.808594 478.410156 351.546875 478.335938 349.0625 478.335938 C 347.550781 478.335938 346.3125 478.40625 346.3125 478.492188 M 357.75 479.46875 C 356.296875 480.824219 355.738281 482.167969 355.738281 484.277344 C 355.738281 486.300781 356.207031 487.144531 357.675781 487.753906 C 359.449219 488.488281 362.019531 487.65625 362.019531 486.347656 C 362.019531 485.941406 361.601562 485.871094 360.292969 486.050781 C 358.777344 486.257812 358.507812 486.179688 358.097656 485.414062 C 356.664062 482.734375 360.320312 478.367188 362.320312 480.367188 C 362.671875 480.714844 362.839844 480.667969 363.03125 480.171875 C 363.53125 478.863281 362.921875 478.335938 360.894531 478.335938 C 359.304688 478.335938 358.746094 478.539062 357.75 479.46875 M 364.15625 482.035156 C 363.503906 485.488281 363.5 485.800781 364.109375 486.730469 C 365.382812 488.675781 369.375 488.308594 370.8125 486.117188 C 371.363281 485.273438 372.621094 480.257812 372.621094 478.902344 C 372.621094 478.570312 372.238281 478.335938 371.683594 478.335938 C 370.839844 478.335938 370.699219 478.59375 370.253906 480.988281 C 369.414062 485.503906 369.003906 486.171875 367.070312 486.183594 C 365.660156 486.191406 365.53125 485.613281 366.175781 482.222656 C 366.902344 478.425781 366.890625 478.335938 365.792969 478.335938 C 364.914062 478.335938 364.804688 478.589844 364.15625 482.035156 M 374.859375 478.609375 C 374.753906 478.785156 374.28125 480.851562 373.804688 483.199219 C 373.128906 486.550781 373.050781 487.539062 373.433594 487.777344 C 374.402344 488.375 374.867188 487.679688 375.363281 484.894531 C 376.175781 480.316406 376.375 480.226562 376.914062 484.183594 C 377.402344 487.769531 377.421875 487.804688 378.453125 487.6875 C 379.304688 487.585938 379.820312 486.976562 381.304688 484.3125 C 382.304688 482.523438 383.210938 480.96875 383.320312 480.859375 C 383.429688 480.75 383.203125 482.210938 382.816406 484.109375 C 382.105469 487.585938 382.242188 488.355469 383.488281 487.878906 C 384.070312 487.65625 384.085938 487.59375 385.148438 482.332031 C 385.953125 478.332031 385.890625 478.160156 383.753906 478.40625 C 382.828125 478.511719 382.363281 479.035156 380.921875 481.59375 C 379.976562 483.277344 379.125 484.578125 379.035156 484.488281 C 378.941406 484.394531 378.652344 483.019531 378.386719 481.429688 L 377.902344 478.535156 L 376.476562 478.414062 C 375.691406 478.347656 374.964844 478.4375 374.859375 478.609375 M 387.742188 479.222656 C 386.59375 484.117188 386.082031 487.585938 386.472656 487.828125 C 387.242188 488.304688 388.230469 487.433594 388.488281 486.054688 C 388.714844 484.835938 388.882812 484.703125 390.398438 484.5 C 392.46875 484.222656 393.828125 482.792969 393.828125 480.890625 C 393.828125 479.101562 392.683594 478.335938 390.015625 478.335938 C 388.199219 478.335938 387.925781 478.441406 387.742188 479.222656 M 395.085938 482.753906 C 394.597656 485.183594 394.203125 487.304688 394.210938 487.46875 C 394.214844 487.628906 395.347656 487.761719 396.730469 487.761719 C 398.65625 487.761719 399.296875 487.617188 399.476562 487.140625 C 399.839844 486.199219 399.828125 486.191406 398.144531 486.191406 C 396.359375 486.191406 396.375 486.246094 397.164062 482.65625 C 397.976562 478.96875 397.933594 478.335938 396.859375 478.335938 C 396.039062 478.335938 395.898438 478.683594 395.085938 482.753906 M 402.28125 478.828125 C 402.191406 479.097656 401.753906 481.164062 401.304688 483.417969 C 400.484375 487.5625 400.601562 488.394531 401.925781 487.886719 C 402.53125 487.652344 402.613281 487.386719 403.445312 483.050781 C 403.800781 481.214844 404.175781 479.402344 404.285156 479.023438 C 404.4375 478.496094 404.246094 478.335938 403.460938 478.335938 C 402.898438 478.335938 402.367188 478.558594 402.28125 478.828125 M 406.25 479.023438 C 406.140625 479.402344 405.761719 481.214844 405.410156 483.050781 C 405.058594 484.886719 404.679688 486.695312 404.574219 487.074219 C 404.398438 487.6875 404.703125 487.761719 407.347656 487.761719 C 410.058594 487.761719 410.320312 487.691406 410.320312 486.976562 C 410.320312 486.304688 410.058594 486.191406 408.511719 486.191406 C 407.023438 486.191406 406.742188 486.082031 406.9375 485.570312 C 407.070312 485.226562 407.175781 484.707031 407.175781 484.414062 C 407.175781 484.066406 407.757812 483.839844 408.84375 483.757812 C 410.058594 483.671875 410.542969 483.453125 410.640625 482.953125 C 410.746094 482.386719 410.480469 482.265625 409.128906 482.265625 C 407.792969 482.265625 407.53125 482.148438 407.726562 481.644531 C 407.855469 481.300781 407.964844 480.769531 407.964844 480.464844 C 407.964844 480.058594 408.492188 479.90625 409.925781 479.90625 C 411.628906 479.90625 411.890625 479.804688 411.890625 479.121094 C 411.890625 478.414062 411.628906 478.335938 409.167969 478.335938 C 406.910156 478.335938 406.410156 478.457031 406.25 479.023438 M 413.675781 478.804688 C 413.582031 479.085938 413.140625 481.164062 412.695312 483.417969 C 412.089844 486.472656 412 487.585938 412.339844 487.796875 C 413.296875 488.386719 413.808594 487.613281 414.261719 484.882812 C 414.519531 483.335938 414.832031 481.898438 414.953125 481.695312 C 415.074219 481.488281 415.640625 482.726562 416.214844 484.445312 C 417.191406 487.378906 417.324219 487.574219 418.464844 487.6875 C 419.851562 487.824219 419.78125 487.964844 420.726562 483.050781 C 421.078125 481.214844 421.453125 479.402344 421.5625 479.023438 C 421.710938 478.5 421.527344 478.335938 420.777344 478.335938 C 419.898438 478.335938 419.753906 478.570312 419.34375 480.59375 C 418.433594 485.132812 418.523438 485.082031 417.386719 481.671875 C 416.398438 478.691406 416.28125 478.527344 415.097656 478.410156 C 414.320312 478.335938 413.78125 478.484375 413.675781 478.804688 M 423.527344 479.023438 C 423.417969 479.402344 423.039062 481.214844 422.6875 483.050781 C 422.335938 484.886719 421.960938 486.695312 421.851562 487.074219 C 421.675781 487.679688 421.96875 487.761719 424.332031 487.761719 C 428.542969 487.757812 430.757812 485.765625 430.726562 482.007812 C 430.703125 479.414062 429.28125 478.335938 425.882812 478.335938 C 424.164062 478.335938 423.683594 478.476562 423.527344 479.023438 M 446.632812 478.828125 C 446.398438 479.46875 444.875 486.945312 444.875 487.453125 C 444.875 487.695312 446.015625 487.789062 447.800781 487.699219 C 450.402344 487.570312 450.863281 487.421875 451.929688 486.398438 C 454.152344 484.269531 454.410156 480.671875 452.449219 479.128906 C 451.265625 478.199219 446.945312 477.976562 446.632812 478.828125 M 456.074219 478.828125 C 455.917969 479.3125 454.300781 487.332031 454.300781 487.636719 C 454.300781 487.726562 455.578125 487.742188 457.140625 487.679688 C 459.480469 487.585938 460.007812 487.445312 460.117188 486.878906 C 460.226562 486.304688 459.945312 486.191406 458.40625 486.191406 C 456.6875 486.191406 456.578125 486.132812 456.800781 485.308594 C 456.929688 484.820312 457.039062 484.292969 457.042969 484.128906 C 457.042969 483.96875 457.734375 483.835938 458.578125 483.835938 C 459.609375 483.835938 460.183594 483.632812 460.34375 483.214844 C 460.703125 482.269531 460.695312 482.265625 458.964844 482.265625 C 457.480469 482.265625 457.367188 482.191406 457.585938 481.378906 C 457.714844 480.894531 457.824219 480.375 457.828125 480.222656 C 457.832031 480.074219 458.671875 479.898438 459.695312 479.832031 C 461.097656 479.742188 461.589844 479.542969 461.6875 479.023438 C 461.800781 478.421875 461.472656 478.335938 459.027344 478.335938 C 457.144531 478.335938 456.183594 478.496094 456.074219 478.828125 M 469.457031 478.957031 C 469.101562 479.890625 469.121094 479.90625 470.535156 479.90625 L 471.851562 479.90625 L 471.128906 483.714844 C 470.597656 486.523438 470.527344 487.597656 470.859375 487.804688 C 471.542969 488.226562 472.347656 487.769531 472.5625 486.835938 C 472.875 485.492188 473.933594 480.265625 473.933594 480.078125 C 473.933594 479.984375 474.550781 479.90625 475.308594 479.90625 C 476.417969 479.90625 476.679688 479.757812 476.679688 479.121094 C 476.679688 478.394531 476.417969 478.335938 473.1875 478.335938 C 470.367188 478.335938 469.652344 478.457031 469.457031 478.957031 M 477.070312 482.875 C 476.167969 487.457031 476.261719 488.441406 477.546875 487.949219 C 477.957031 487.792969 478.421875 486.363281 478.988281 483.519531 C 480.023438 478.3125 480.023438 478.335938 478.890625 478.335938 C 478.019531 478.335938 477.90625 478.613281 477.070312 482.875 M 481.972656 478.828125 C 481.75 479.4375 480.214844 486.929688 480.214844 487.414062 C 480.214844 487.605469 480.628906 487.761719 481.132812 487.761719 C 481.96875 487.761719 482.101562 487.496094 482.554688 484.914062 C 482.832031 483.347656 483.144531 481.917969 483.253906 481.738281 C 483.359375 481.554688 483.914062 482.792969 484.480469 484.484375 C 485.46875 487.421875 485.574219 487.570312 486.792969 487.6875 C 487.496094 487.757812 488.070312 487.730469 488.070312 487.632812 C 488.070312 487.535156 488.421875 485.738281 488.855469 483.636719 C 489.839844 478.847656 489.84375 478.335938 488.878906 478.335938 C 488.042969 478.335938 487.933594 478.59375 487.238281 482.242188 L 486.757812 484.773438 L 486.238281 483.222656 C 484.667969 478.5625 484.53125 478.335938 483.3125 478.335938 C 482.675781 478.335938 482.074219 478.558594 481.972656 478.828125 M 493.113281 478.933594 C 491.105469 480.027344 489.738281 484.566406 490.816406 486.578125 C 491.808594 488.429688 496.019531 488.378906 497.789062 486.488281 C 499.605469 484.546875 500.085938 480.539062 498.671875 479.121094 C 497.722656 478.171875 494.707031 478.070312 493.113281 478.933594 M 331.25 481.113281 C 331.109375 481.800781 331 482.515625 331 482.707031 C 331 483.335938 332.4375 483.058594 333.132812 482.292969 C 334.074219 481.25 333.78125 480.132812 332.519531 479.984375 C 331.648438 479.882812 331.460938 480.050781 331.25 481.113281 M 339.484375 480.53125 C 338.960938 481.890625 339.207031 482.59375 340.128906 482.375 C 341.230469 482.113281 342.007812 481.183594 341.726562 480.460938 C 341.441406 479.707031 339.777344 479.761719 339.484375 480.527344 M 389.375 481.359375 C 389.09375 483.097656 389.179688 483.21875 390.464844 482.894531 C 391.074219 482.742188 391.550781 482.277344 391.699219 481.691406 C 392.007812 480.457031 391.644531 479.90625 390.515625 479.90625 C 389.777344 479.90625 389.566406 480.171875 389.375 481.359375 M 424.875 482.363281 C 424.621094 483.710938 424.320312 485.125 424.210938 485.503906 C 424.050781 486.042969 424.25 486.191406 425.128906 486.191406 C 426.726562 486.191406 427.898438 485.21875 428.425781 483.445312 C 429.027344 481.445312 428.171875 479.90625 426.460938 479.90625 C 425.402344 479.90625 425.320312 480.035156 424.875 482.363281 M 435.066406 480.683594 C 434.132812 481.617188 433.777344 482.878906 433.949219 484.664062 C 434.066406 485.890625 434.191406 486.003906 435.539062 486.117188 C 436.832031 486.222656 437.097656 486.085938 437.796875 484.9375 C 438.675781 483.496094 438.847656 481.105469 438.121094 480.378906 C 437.410156 479.667969 435.9375 479.8125 435.066406 480.683594 M 448.222656 480.792969 C 446.976562 486.273438 446.976562 486.191406 448.375 486.191406 C 450 486.191406 451.550781 484.265625 451.550781 482.246094 C 451.550781 481.140625 451.339844 480.609375 450.789062 480.316406 C 449.507812 479.628906 448.441406 479.828125 448.222656 480.792969 M 493.644531 480.878906 C 492.625 482.179688 492.144531 484.835938 492.792969 485.617188 C 494.15625 487.261719 496.808594 485.589844 497.34375 482.75 C 497.671875 480.984375 497.152344 480.136719 495.632812 479.984375 C 494.734375 479.894531 494.246094 480.113281 493.644531 480.878906 M 507.199219 486.570312 C 506.960938 487.484375 507.75 488.261719 508.597656 487.9375 C 509.222656 487.695312 509.742188 486.398438 509.363281 486.015625 C 508.824219 485.480469 507.390625 485.847656 507.199219 486.570312 " fill-opacity="1" fill-rule="evenodd"/></svg>